
<svg width="80" height="81" viewBox="0 0 80 81" fill="none" xmlns="http://www.w3.org/2000/svg">
    <g clip-path="url(#clip0_1_8)">
        <path d="M73.6149 0.5H6.38508C2.8587 0.5 0 3.3587 0 6.88508V74.1149C0 77.6413 2.8587 80.5 6.38508 80.5H73.6149C77.1413 80.5 80 77.6413 80 74.1149V6.88508C80 3.3587 77.1413 0.5 73.6149 0.5Z" fill="black"/>
        <path d="M13 44.7465H16.6673C16.7465 45.0602 16.8165 45.3313 16.8835 45.6054C17.2521 47.0614 18.1567 47.9843 19.6066 48.3772C20.9833 48.7488 22.3692 48.8067 23.7582 48.493C25.3664 48.1305 26.2497 47.1132 26.3198 45.6024C26.3929 43.9545 25.7015 42.925 24.0201 42.4438C22.8017 42.0965 21.5316 41.9412 20.298 41.6457C19.1588 41.3747 18.0075 41.1097 16.914 40.7015C14.5991 39.8395 13.5209 38.0607 13.4173 35.6331C13.3168 33.303 14.1514 31.4145 16.2195 30.2936C17.2551 29.7332 18.4583 29.3707 19.6279 29.1849C21.6473 28.8651 23.682 28.923 25.6436 29.654C28.1626 30.5921 29.4632 32.4654 29.8591 35.2006C28.7291 35.3894 27.6204 35.5752 26.466 35.7671C26.2771 35.2859 26.1187 34.8473 25.9299 34.4208C25.3877 33.1933 24.4526 32.4836 23.1155 32.2643C21.7722 32.045 20.4503 32.0724 19.1588 32.4836C17.8582 32.8979 17.1942 33.7538 17.1546 34.9661C17.1089 36.3398 17.6663 37.2992 19.0431 37.7104C20.5874 38.1734 22.2017 38.3958 23.7673 38.8039C24.8973 39.0963 26.0304 39.4375 27.1026 39.9004C31.175 41.6518 31.0744 48.0178 27.925 50.156C26.6579 51.018 25.2781 51.5511 23.7734 51.7003C21.7387 51.9044 19.7101 51.8313 17.7394 51.1795C14.7971 50.2078 13.1188 47.963 13.003 44.7434L13 44.7465Z" fill="white"/>
        <path d="M43.3525 35.5631H46.8279V51.1521H43.4865V49.3611C43.4195 49.3184 43.3525 49.2758 43.2825 49.2362C43.1149 49.4555 42.9687 49.6931 42.7799 49.891C40.9341 51.8221 38.677 52.2029 36.2129 51.4871C34.2574 50.9206 33.4899 49.3306 33.3893 47.4817C33.2462 44.7861 33.2858 42.0813 33.2553 39.3826C33.2431 38.146 33.2553 36.9124 33.2553 35.6057H36.7612C36.7612 35.9255 36.7612 36.2636 36.7612 36.5987C36.7612 39.3948 36.7612 42.194 36.7673 44.9902C36.7673 45.5628 36.7612 46.1385 36.8312 46.705C37.0109 48.1396 37.8272 48.8493 39.2558 48.8768C41.4427 48.9194 43.2764 47.2502 43.3221 45.0633C43.3799 42.2671 43.3464 39.4679 43.3525 36.6718C43.3525 36.3306 43.3525 35.9864 43.3525 35.5661V35.5631Z" fill="white"/>
        <path d="M59.1364 38.2252H56.7149V35.5783H59.0968V31.4176H62.5631V35.5021H66.4375V38.213H62.5996C62.5996 39.1846 62.5996 40.0345 62.5996 40.8843C62.5996 42.6022 62.5936 44.3201 62.5996 46.0349C62.6088 48.3072 63.3642 48.9438 65.609 48.5874C65.8557 48.5478 66.1055 48.5234 66.4619 48.4777C66.6355 49.3336 66.803 50.156 66.9949 51.0942C64.9359 51.6881 62.9347 51.9775 60.9792 50.951C59.9771 50.4241 59.5659 49.4128 59.3679 48.362C59.2126 47.5579 59.1608 46.7233 59.1517 45.9009C59.1243 43.3911 59.1425 40.8812 59.1425 38.2221L59.1364 38.2252Z" fill="white"/>
        <path d="M54.2478 51.1733H50.8181V35.5844H54.2478V51.1733Z" fill="white"/>
        <path d="M54.3147 29.6875V33.0258H50.8089V29.6875H54.3147Z" fill="white"/>
    </g>
    <defs>
        <clipPath id="clip0_1_8">
            <rect width="80" height="80" fill="white" transform="translate(0 0.5)"/>
        </clipPath>
    </defs>
</svg>
