
<svg width="59" height="59" viewBox="0 0 59 59" fill="none" xmlns="http://www.w3.org/2000/svg">
    <g clip-path="url(#clip0_215_1134)">
        <path d="M53.5294 0.668945H4.64294C2.07872 0.668945 0 2.74766 0 5.31189V54.1984C0 56.7626 2.07872 58.8413 4.64294 58.8413H53.5294C56.0936 58.8413 58.1724 56.7626 58.1724 54.1984V5.31189C58.1724 2.74766 56.0936 0.668945 53.5294 0.668945Z" fill="#33CC33"/>
        <path d="M10.9222 32.9346H13.4405C13.4949 33.15 13.543 33.3362 13.589 33.5244C13.8421 34.5242 14.4633 35.1579 15.4589 35.4278C16.4043 35.6829 17.356 35.7227 18.3097 35.5072C19.4141 35.2583 20.0207 34.5597 20.0688 33.5223C20.119 32.3908 19.6442 31.6838 18.4896 31.3533C17.653 31.1149 16.7808 31.0082 15.9337 30.8053C15.1514 30.6192 14.3608 30.4372 13.6099 30.1569C12.0203 29.565 11.2798 28.3435 11.2087 26.6765C11.1397 25.0764 11.7128 23.7796 13.133 23.0099C13.8442 22.6251 14.6703 22.3762 15.4735 22.2486C16.8602 22.0289 18.2574 22.0687 19.6044 22.5707C21.3342 23.2149 22.2273 24.5012 22.4992 26.3795C21.7232 26.5092 20.9619 26.6367 20.1692 26.7685C20.0395 26.438 19.9307 26.1369 19.801 25.844C19.4287 25.0011 18.7866 24.5138 17.8684 24.3632C16.946 24.2126 16.0382 24.2314 15.1514 24.5138C14.2583 24.7982 13.8023 25.386 13.7751 26.2184C13.7438 27.1617 14.1265 27.8206 15.0719 28.103C16.1324 28.4209 17.2409 28.5736 18.316 28.8538C19.092 29.0546 19.8701 29.2889 20.6063 29.6068C23.4028 30.8095 23.3338 35.181 21.171 36.6493C20.3009 37.2412 19.3534 37.6072 18.3202 37.7097C16.923 37.8498 15.53 37.7996 14.1767 37.352C12.1562 36.6848 11.0038 35.1433 10.9243 32.9325L10.9222 32.9346Z" fill="white"/>
        <path d="M31.7648 26.6279H34.1513V37.3328H31.8568V36.1029C31.8108 36.0736 31.7648 36.0443 31.7167 36.0171C31.6016 36.1677 31.5012 36.3309 31.3716 36.4668C30.104 37.7929 28.5542 38.0544 26.8621 37.5628C25.5192 37.1738 24.9922 36.082 24.9231 34.8124C24.8248 32.9613 24.852 31.104 24.8311 29.2508C24.8227 28.4016 24.8311 27.5545 24.8311 26.6572H27.2385C27.2385 26.8768 27.2385 27.109 27.2385 27.3391C27.2385 29.2592 27.2385 31.1814 27.2427 33.1014C27.2427 33.4947 27.2385 33.89 27.2867 34.279C27.4101 35.2642 27.9706 35.7515 28.9516 35.7703C30.4533 35.7996 31.7125 34.6534 31.7439 33.1516C31.7836 31.2316 31.7606 29.3094 31.7648 27.3893C31.7648 27.155 31.7648 26.9187 31.7648 26.63V26.6279Z" fill="white"/>
        <path d="M42.6037 28.4565H40.9409V26.6389H42.5765V23.7817H44.9567V26.5866H47.6173V28.4481H44.9818C44.9818 29.1153 44.9818 29.6989 44.9818 30.2824C44.9818 31.4621 44.9777 32.6418 44.9818 33.8193C44.9881 35.3797 45.5068 35.8168 47.0483 35.5721C47.2178 35.5449 47.3893 35.5282 47.634 35.4968C47.7532 36.0846 47.8682 36.6493 48 37.2935C46.5861 37.7014 45.2119 37.9001 43.8691 37.1952C43.181 36.8334 42.8986 36.1389 42.7626 35.4173C42.656 34.8652 42.6204 34.2921 42.6141 33.7273C42.5953 32.0038 42.6079 30.2804 42.6079 28.4544L42.6037 28.4565Z" fill="white"/>
        <path d="M39.2466 37.3479H36.8914V26.6431H39.2466V37.3479Z" fill="white"/>
        <path d="M39.2928 22.5933V24.8857H36.8854V22.5933H39.2928Z" fill="white"/>
    </g>
    <defs>
        <clipPath id="clip0_215_1134">
            <rect width="58.1724" height="58.1724" fill="white" transform="translate(0 0.668945)"/>
        </clipPath>
    </defs>
</svg>
